<svg width="23" height="23" viewBox="0 0 23 23" fill="none" xmlns="http://www.w3.org/2000/svg">
<path d="M2.53563 22.5C1.47313 22.5 0.717923 22.026 0.270006 21.0781C-0.177911 20.1302 -0.0685359 19.25 0.598131 18.4375L7.53563 10V2.5H6.28563C5.93146 2.5 5.63459 2.38021 5.39501 2.14062C5.15542 1.90104 5.03563 1.60417 5.03563 1.25C5.03563 0.895833 5.15542 0.598958 5.39501 0.359375C5.63459 0.119792 5.93146 0 6.28563 0H16.2856C16.6398 0 16.9367 0.119792 17.1763 0.359375C17.4158 0.598958 17.5356 0.895833 17.5356 1.25C17.5356 1.60417 17.4158 1.90104 17.1763 2.14062C16.9367 2.38021 16.6398 2.5 16.2856 2.5H15.0356V10L21.9731 18.4375C22.6398 19.25 22.7492 20.1302 22.3013 21.0781C21.8533 22.026 21.0981 22.5 20.0356 22.5H2.53563ZM2.53563 20H20.0356L12.5356 10.875V2.5H10.0356V10.875L2.53563 20Z" fill="#0058BC"/>
</svg>
