<svg width="34" height="34" viewBox="0 0 34 34" fill="none" xmlns="http://www.w3.org/2000/svg">
<path d="M21.9021 4.71701C20.1365 5.11642 18.4588 6.00569 17.0844 7.38476C17.0562 7.41306 17.0289 7.44197 17.0011 7.47052L17 7.4694L16.9989 7.47047C16.9711 7.44192 16.9438 7.41301 16.9156 7.38471C13.0459 3.50197 6.77196 3.50197 2.90227 7.38471C-0.967422 11.2675 -0.967422 17.5626 2.90227 21.4453C2.93047 21.4736 2.95928 21.501 2.98774 21.5289L2.98667 21.53L14.2921 32.8736C15.7876 34.3741 18.2124 34.3741 19.7079 32.8736L31.0133 21.53L31.0123 21.5289C31.0407 21.501 31.0695 21.4736 31.0977 21.4453C34.9674 17.5626 34.9674 11.2675 31.0977 7.38471C30.822 7.10805 30.534 6.85109 30.2356 6.61382" fill="url(#paint0_linear_7827_33326)"/>
<path d="M24.4821 17.1596H19.5258V12.2034C19.5258 11.8883 19.2704 11.6328 18.9553 11.6328H15.0448C14.7297 11.6328 14.4742 11.8883 14.4742 12.2034V17.1596H9.51797C9.20285 17.1596 8.94739 17.4151 8.94739 17.7302V21.6407C8.94739 21.9558 9.20285 22.2113 9.51797 22.2113H14.4742V27.1675C14.4742 27.4826 14.7297 27.7381 15.0448 27.7381H18.9553C19.2704 27.7381 19.5258 27.4826 19.5258 27.1675V22.2113H24.4821C24.7972 22.2113 25.0527 21.9558 25.0527 21.6407V17.7302C25.0527 17.4151 24.7972 17.1596 24.4821 17.1596Z" fill="white"/>
<path d="M31.8618 3.37748H28.833V0.34869C28.833 0.156101 28.6769 0 28.4843 0H26.0946C25.902 0 25.7459 0.156101 25.7459 0.34869V3.37748H22.7171C22.5245 3.37748 22.3684 3.53359 22.3684 3.72617V6.11593C22.3684 6.30852 22.5245 6.46462 22.7171 6.46462H25.7459V9.49341C25.7459 9.686 25.902 9.8421 26.0946 9.8421H28.4843C28.6769 9.8421 28.833 9.686 28.833 9.49341V6.46462H31.8618C32.0544 6.46462 32.2105 6.30852 32.2105 6.11593V3.72617C32.2105 3.53359 32.0544 3.37748 31.8618 3.37748Z" fill="url(#paint1_linear_7827_33326)"/>
<defs>
<linearGradient id="paint0_linear_7827_33326" x1="17" y1="4.47266" x2="17" y2="33.999" gradientUnits="userSpaceOnUse">
<stop stop-color="#70E04C"/>
<stop offset="1" stop-color="#3BB033"/>
</linearGradient>
<linearGradient id="paint1_linear_7827_33326" x1="27.2895" y1="0" x2="27.2895" y2="9.8421" gradientUnits="userSpaceOnUse">
<stop stop-color="#70E04C"/>
<stop offset="1" stop-color="#3BB033"/>
</linearGradient>
</defs>
</svg>
