<svg width="34" height="31" viewBox="0 0 34 31" fill="none" xmlns="http://www.w3.org/2000/svg">
<path d="M16.6667 30.5833L14.25 28.4167C11.4444 25.8889 9.125 23.7083 7.29167 21.875C5.45833 20.0417 4 18.3958 2.91667 16.9375C1.83333 15.4792 1.07639 14.1389 0.645833 12.9167C0.215278 11.6944 0 10.4444 0 9.16667C0 6.55556 0.875 4.375 2.625 2.625C4.375 0.875 6.55556 0 9.16667 0C10.6111 0 11.9861 0.305556 13.2917 0.916667C14.5972 1.52778 15.7222 2.38889 16.6667 3.5C17.6111 2.38889 18.7361 1.52778 20.0417 0.916667C21.3472 0.305556 22.7222 0 24.1667 0C26.7778 0 28.9583 0.875 30.7083 2.625C32.4583 4.375 33.3333 6.55556 33.3333 9.16667C33.3333 10.4444 33.1181 11.6944 32.6875 12.9167C32.2569 14.1389 31.5 15.4792 30.4167 16.9375C29.3333 18.3958 27.875 20.0417 26.0417 21.875C24.2083 23.7083 21.8889 25.8889 19.0833 28.4167L16.6667 30.5833ZM16.6667 26.0833C19.3333 23.6944 21.5278 21.6458 23.25 19.9375C24.9722 18.2292 26.3333 16.7431 27.3333 15.4792C28.3333 14.2153 29.0278 13.0903 29.4167 12.1042C29.8056 11.1181 30 10.1389 30 9.16667C30 7.5 29.4444 6.11111 28.3333 5C27.2222 3.88889 25.8333 3.33333 24.1667 3.33333C22.8611 3.33333 21.6528 3.70139 20.5417 4.4375C19.4306 5.17361 18.6667 6.11111 18.25 7.25H15.0833C14.6667 6.11111 13.9028 5.17361 12.7917 4.4375C11.6806 3.70139 10.4722 3.33333 9.16667 3.33333C7.5 3.33333 6.11111 3.88889 5 5C3.88889 6.11111 3.33333 7.5 3.33333 9.16667C3.33333 10.1389 3.52778 11.1181 3.91667 12.1042C4.30556 13.0903 5 14.2153 6 15.4792C7 16.7431 8.36111 18.2292 10.0833 19.9375C11.8056 21.6458 14 23.6944 16.6667 26.0833Z" fill="#0058BC"/>
</svg>
